<svg width="54" height="54" viewBox="0 0 54 54" fill="none" xmlns="http://www.w3.org/2000/svg">
<g clip-path="url(#clip0_5_17)">
<path d="M27 4.5C14.58 4.5 4.5 14.58 4.5 27C4.5 39.42 14.58 49.5 27 49.5C39.42 49.5 49.5 39.42 49.5 27C49.5 14.58 39.42 4.5 27 4.5ZM27 13.5C31.3425 13.5 34.875 17.0325 34.875 21.375C34.875 25.7175 31.3425 29.25 27 29.25C22.6575 29.25 19.125 25.7175 19.125 21.375C19.125 17.0325 22.6575 13.5 27 13.5ZM27 45C22.4325 45 17.0325 43.155 13.185 38.52C16.9875 35.55 21.78 33.75 27 33.75C32.22 33.75 37.0125 35.55 40.815 38.52C36.9675 43.155 31.5675 45 27 45Z" fill="white"/>
</g>
<defs>
<clipPath id="clip0_5_17">
<rect width="54" height="54" fill="white"/>
</clipPath>
</defs>
</svg>
