<svg width="49" height="50" viewBox="0 0 49 50" fill="none" xmlns="http://www.w3.org/2000/svg">
<path d="M39.0706 26.7337C39.1518 26.1252 39.1923 25.4965 39.1923 24.8272C39.1923 24.1783 39.1518 23.5293 39.0504 22.9208L43.1674 19.7164C43.5325 19.4325 43.6339 18.8849 43.4108 18.4793L39.5168 11.746C39.2734 11.2998 38.7664 11.1578 38.3202 11.2998L33.4731 13.2468C32.459 12.4761 31.3841 11.8271 30.1875 11.3403L29.4574 6.18895C29.3763 5.7022 28.9707 5.35742 28.4839 5.35742H20.696C20.2092 5.35742 19.8239 5.7022 19.7428 6.18895L19.0127 11.3403C17.8161 11.8271 16.7209 12.4964 15.7271 13.2468L10.8799 11.2998C10.4338 11.1375 9.92674 11.2998 9.68337 11.746L5.80968 18.4793C5.56631 18.9052 5.64743 19.4325 6.05305 19.7164L10.1701 22.9208C10.0687 23.5293 9.98758 24.1985 9.98758 24.8272C9.98758 25.456 10.0281 26.1252 10.1295 26.7337L6.01249 29.9381C5.64743 30.222 5.54603 30.7696 5.76912 31.1752L9.66308 37.9085C9.90646 38.3547 10.4135 38.4967 10.8597 38.3547L15.7068 36.4077C16.7209 37.1784 17.7958 37.8274 18.9924 38.3142L19.7225 43.4656C19.8239 43.9523 20.2092 44.2971 20.696 44.2971H28.4839C28.9707 44.2971 29.3763 43.9523 29.4371 43.4656L30.1672 38.3142C31.3638 37.8274 32.459 37.1784 33.4528 36.4077L38.3 38.3547C38.7461 38.517 39.2532 38.3547 39.4965 37.9085L43.3905 31.1752C43.6339 30.729 43.5325 30.222 43.1471 29.9381L39.0706 26.7337ZM24.59 32.1284C20.5743 32.1284 17.2888 28.8429 17.2888 24.8272C17.2888 20.8116 20.5743 17.5261 24.59 17.5261C28.6056 17.5261 31.8911 20.8116 31.8911 24.8272C31.8911 28.8429 28.6056 32.1284 24.59 32.1284Z" fill="white"/>
</svg>
